<svg xmlns="http://www.w3.org/2000/svg" xmlns:xlink="http://www.w3.org/1999/xlink" viewBox="0 0 500 500"><defs><clipPath id="freepik--clip-path--inject-113"><path d="M125,439.24h0a10.21,10.21,0,0,0-8.88,4.77,10.08,10.08,0,0,0,2.94,14,9.75,9.75,0,0,0,5,1.52h0l49.89.59,1.83-19.78Z" style="fill:none"></path></clipPath></defs><g id="freepik--background-complete--inject-113"><rect x="68.53" y="29.73" width="117.62" height="194.7" style="fill:#e0e0e0"></rect><rect x="64.61" y="29.73" width="117.62" height="194.7" style="fill:#ebebeb"></rect><rect x="69.62" y="33.67" width="107.61" height="186.8" style="fill:#fafafa"></rect><rect x="90.11" y="57.95" width="66.17" height="138.26" style="fill:#ebebeb"></rect><path d="M90.11,147.28C90,134.36,101.57,121.76,114.36,120c6.09-.86,12.57.35,18.27-2,10.17-4.17,13.41-17.69,23.65-21.7l.46,99.93H90.11Z" style="fill:#e0e0e0"></path><rect x="53.57" y="267.97" width="218.54" height="193.38" style="fill:#f5f5f5"></rect><rect x="89.25" y="308.5" width="151.81" height="151.81" style="fill:#e0e0e0"></rect><path d="M241.07,460.31s0-.25,0-.72,0-1.18,0-2.1c0-1.85,0-4.59,0-8.15,0-7.14,0-17.58-.07-30.88,0-26.56-.08-64.48-.14-110l.28.27-151.8.05h0l.32-.32c0,55.59,0,107.69,0,151.81l-.28-.27,110,.14,30.88.07,8.15,0,2.1,0h.72l-.69,0h-2.07l-8.1,0-30.81.08-110.15.14H89v-.28c0-44.12,0-96.22,0-151.81v-.32h.34l151.8,0h.27v.28c-.05,45.56-.1,83.54-.14,110.14,0,13.26,0,23.69-.07,30.81,0,3.54,0,6.26,0,8.1,0,.91,0,1.6,0,2.07S241.07,460.31,241.07,460.31Z" style="fill:#e0e0e0"></path><path d="M125.86,439.66c-9.57-14.32-8.18-35,3.22-47.94,2-2.24,4.48-4.37,7.47-4.5s6.11,2.82,5.09,5.62c-.73,2-3.17,3.14-3.6,5.24-.5,2.43,2.36,4.56,4.79,4.09s4.2-2.68,5.11-5,1.21-4.82,2-7.17,2.32-4.66,4.68-5.45c2-.69,4.3-.09,6.43-.44,4-.66,6.75-4.62,7.4-8.61s-.35-8-1.24-12-1.7-8.07-.68-12c1.51-5.81,7.08-10.09,13-10.9s12.06,1.52,16.62,5.42,7.69,9.26,9.8,14.88a53.65,53.65,0,0,1-16.17,60.21c-3.46,2.84-7.3,5.28-10.21,8.68s-4.78,8.13-3.38,12.38" style="fill:#fafafa"></path><path d="M136.64,441.22c-2.06-3.48-4.17-7.1-4.57-11.12s1.43-8.57,5.21-10c2.54-1,5.46-.38,8-1.25,3.68-1.24,5.74-5,7.84-8.28a52.25,52.25,0,0,1,13.3-14,15.59,15.59,0,0,1,6.17-3,6.59,6.59,0,0,1,6.29,2c2.26,2.8.89,7.07-1.38,9.87s-5.35,5-6.91,8.23c-1.88,3.88-1.21,8.43-1,12.73s-.44,9.21-3.9,11.77c-1.43,1-3.19,1.57-4.66,2.56s-2.69,2.77-2.17,4.46" style="fill:#ebebeb"></path><path d="M185.52,382.16a4.13,4.13,0,1,0,.34-.36" style="fill:#ebebeb"></path><g style="clip-path:url(#freepik--clip-path--inject-113)"><path d="M125,439.24h0a10.21,10.21,0,0,0-8.88,4.77,10.08,10.08,0,0,0,2.94,14,9.75,9.75,0,0,0,5,1.52h0l49.89.59,3.1-19.61Z" style="fill:#f5f5f5"></path><path d="M114.62,447.88a6.42,6.42,0,0,1,1.83-1.12,13.83,13.83,0,0,1,5.76-.92,28.36,28.36,0,0,1,8.48,1.73c1.55.5,3.16,1.05,4.87,1.47a17.87,17.87,0,0,0,5.35.58c3.7-.26,6.93-2.07,10.18-2.63a16.54,16.54,0,0,1,8.59.88,40.46,40.46,0,0,1,5.32,2.41c.61.32,1.08.58,1.39.76a2.55,2.55,0,0,1,.47.3,2.64,2.64,0,0,1-.51-.21l-1.43-.69a49,49,0,0,0-5.35-2.25,16.52,16.52,0,0,0-8.4-.77,37.06,37.06,0,0,0-4.85,1.44,21.23,21.23,0,0,1-5.38,1.23,17.71,17.71,0,0,1-5.49-.6c-1.73-.43-3.35-1-4.89-1.5a28.44,28.44,0,0,0-8.36-1.81,14.12,14.12,0,0,0-5.68.75A17.41,17.41,0,0,0,114.62,447.88Z" style="fill:#e0e0e0"></path><path d="M149.26,453.1s.1-.08.32-.18a4,4,0,0,1,1-.28,4.48,4.48,0,0,1,3.75,1.27l.14.13-.18.1a10.44,10.44,0,0,1-8.57.46,5.87,5.87,0,0,1-1.21-.59,1.61,1.61,0,0,1-.8-1.27,1.52,1.52,0,0,1,.93-1.22,13,13,0,0,1,1.3-.63,14.39,14.39,0,0,1,11,.05,7.43,7.43,0,0,1,2.15,1.31,2.46,2.46,0,0,1,.8,2.32,3.58,3.58,0,0,1-1.32,1.92,6.32,6.32,0,0,1-1.93,1,10.48,10.48,0,0,1-3.79.48,19.71,19.71,0,0,1-5.36-1.16c-.61-.21-1.08-.39-1.4-.52s-.48-.19-.47-.21a3,3,0,0,1,.5.12l1.43.43a20.87,20.87,0,0,0,5.32,1,10.21,10.21,0,0,0,3.65-.52,5.92,5.92,0,0,0,1.79-.94,3.15,3.15,0,0,0,1.15-1.69,2,2,0,0,0-.69-1.9,7.07,7.07,0,0,0-2-1.2,13.94,13.94,0,0,0-10.63-.05c-.43.17-.85.39-1.25.59s-.71.5-.71.84a1.17,1.17,0,0,0,.6.9,5.86,5.86,0,0,0,1.12.56,10.28,10.28,0,0,0,8.28-.33l0,.23a4.41,4.41,0,0,0-3.53-1.32A7,7,0,0,0,149.26,453.1Z" style="fill:#e0e0e0"></path><path d="M175.34,443.14c0,.05-.74-.28-2.11-.72a33.88,33.88,0,0,0-5.9-1.37,27.82,27.82,0,0,0-8.93.14c-3.33.57-6.72,2.23-10.49,3.39s-7.66,1.69-11,.69a71.49,71.49,0,0,1-8.37-3.45,26.51,26.51,0,0,0-3.25-1.16,14.5,14.5,0,0,0-2.56-.43l-.94,0c-.28,0-.51.05-.7.06a3.19,3.19,0,0,1-.58,0,2.21,2.21,0,0,1,.57-.12c.19,0,.42-.07.7-.1h1a13.54,13.54,0,0,1,2.62.35,25.21,25.21,0,0,1,3.31,1.11,79.19,79.19,0,0,0,8.35,3.33c3.25,1,7.06.47,10.76-.72s7.14-2.8,10.55-3.37a27.79,27.79,0,0,1,9.06,0,29.7,29.7,0,0,1,5.91,1.54c.68.25,1.19.46,1.54.63A3.25,3.25,0,0,1,175.34,443.14Z" style="fill:#e0e0e0"></path><path d="M169.62,453.28a3.43,3.43,0,0,1-.43.41c-.3.26-.75.63-1.34,1.09a37.36,37.36,0,0,1-5.3,3.48,28,28,0,0,1-8.88,3.07,21.08,21.08,0,0,1-11.4-1.19c-3.83-1.55-7-3.85-10.07-5.56a23.18,23.18,0,0,0-8.65-3.24,12.48,12.48,0,0,0-6.15.7,15.73,15.73,0,0,0-2.05,1.06,6.53,6.53,0,0,1,2-1.23,12.37,12.37,0,0,1,6.26-.87,23.38,23.38,0,0,1,8.84,3.19c3.1,1.71,6.28,4,10,5.51a21,21,0,0,0,11.15,1.2,28.42,28.42,0,0,0,8.79-2.94,42.29,42.29,0,0,0,5.35-3.33l1.39-1A2.11,2.11,0,0,1,169.62,453.28Z" style="fill:#e0e0e0"></path></g><path d="M180.12,441.78A10,10,0,1,1,166.55,445,9.85,9.85,0,0,1,180.12,441.78Z" style="fill:#ebebeb"></path><path d="M175,442.3a2.2,2.2,0,0,1,.45.13c.28.1.7.26,1.23.49s1.16.55,1.87,1a8.12,8.12,0,0,1,2.17,1.79,5.78,5.78,0,0,1,1.32,3.15,9.31,9.31,0,0,1-.48,3.89,7.28,7.28,0,0,1-2.47,3.56,6.14,6.14,0,0,1-4.53,1,10.57,10.57,0,0,1-4.36-1.6,5.53,5.53,0,0,1-2.52-3.51,8,8,0,0,1,.3-3.91,13.46,13.46,0,0,1,1.37-3.11,6,6,0,0,1,3.86-2.92,3.93,3.93,0,0,1,1.34-.05,1.32,1.32,0,0,1,.45.11,5.37,5.37,0,0,0-5.36,3,13.51,13.51,0,0,0-1.28,3.05,7.82,7.82,0,0,0-.25,3.71,5.08,5.08,0,0,0,2.35,3.21,10.16,10.16,0,0,0,4.16,1.52,5.71,5.71,0,0,0,4.19-.93,6.87,6.87,0,0,0,2.33-3.32,8.7,8.7,0,0,0,.5-3.71,5.49,5.49,0,0,0-1.18-3,8.08,8.08,0,0,0-2-1.77c-.68-.43-1.3-.76-1.81-1C175.54,442.57,174.94,442.34,175,442.3Z" style="fill:#e0e0e0"></path><path d="M175.91,445s.09-.07.29-.05a1.43,1.43,0,0,1,.68.48,4.11,4.11,0,0,1,.64,1.11l.69,1.52c.24.57.54,1.17.79,1.88a3.34,3.34,0,0,1,.06,2.42,3.2,3.2,0,0,1-2,1.73,4.87,4.87,0,0,1-2.85-.09,7.05,7.05,0,0,1-2.52-1.31,2.63,2.63,0,0,1-.76-1.2,3.35,3.35,0,0,1-.07-1.33,16.58,16.58,0,0,1,.59-2.29,6.75,6.75,0,0,1,.89-1.87,3.11,3.11,0,0,1,2.59-1.38,1.94,1.94,0,0,1,.8.21c.16.09.23.16.22.17a3.54,3.54,0,0,0-1-.19,3,3,0,0,0-2.31,1.39,11.45,11.45,0,0,0-1.32,4,2.28,2.28,0,0,0,.71,2.13,6.57,6.57,0,0,0,2.34,1.2,4.48,4.48,0,0,0,2.58.1,2.78,2.78,0,0,0,1.77-1.46,3,3,0,0,0,0-2.12c-.22-.67-.51-1.29-.73-1.86l-.63-1.55a4.18,4.18,0,0,0-.53-1.1c-.22-.27-.4-.46-.56-.5S175.92,445,175.91,445Z" style="fill:#e0e0e0"></path><path d="M122.28,461.35s0-.28,0-.8,0-1.32,0-2.32c0-2.05,0-5,0-8.86,0-7.69-.06-18.78-.11-32.47s0-30-.09-48.06q0-6.78,0-13.88c0-2.37,0-4.76,0-7.17v-3.64a18,18,0,0,0-.26-3.6,13.38,13.38,0,0,0-1.23-3.39,13.73,13.73,0,0,0-2.17-2.93,14.4,14.4,0,0,0-2.93-2.2,12.52,12.52,0,0,0-7.19-1.45,13.59,13.59,0,0,0-3.64.91,13.81,13.81,0,0,0-3.22,2,13.38,13.38,0,0,0-2.51,2.85,12.58,12.58,0,0,0-1.76,4.39,24.44,24.44,0,0,0-.24,4.78V355q0,9.48,0,18.57c0,12.11,0,23.62,0,34.36,0,21.45-.07,39.77-.1,53.38l-.18-.18,19,.1,5.06,0,1.31,0,.46,0-.42,0-1.28,0-5,0-19,.1h-.18v-.18c0-13.61-.06-31.93-.1-53.38,0-10.74,0-22.25,0-34.36V355c0-3.16,0-6.36,0-9.57a25.41,25.41,0,0,1,.25-4.9A13.13,13.13,0,0,1,98.29,336a13.7,13.7,0,0,1,2.63-3,14.49,14.49,0,0,1,3.39-2.06,14,14,0,0,1,3.82-.95,14.54,14.54,0,0,1,3.9.2,14.12,14.12,0,0,1,3.65,1.33,14.26,14.26,0,0,1,3.08,2.31,14.1,14.1,0,0,1,2.27,3.07,14.43,14.43,0,0,1,1.3,3.57,18,18,0,0,1,.26,3.72V355q0,7.13,0,13.94c0,18.12-.06,34.45-.09,48.17s-.08,24.75-.1,32.42c0,3.8,0,6.76,0,8.79,0,1,0,1.74,0,2.27S122.28,461.35,122.28,461.35Z" style="fill:#ebebeb"></path><path d="M148.41,461.35s0-.28,0-.8,0-1.32,0-2.32c0-2.05,0-5,0-8.86,0-7.69-.07-18.78-.11-32.47s-.06-30-.09-48.06q0-6.78,0-13.88,0-3.56,0-7.17v-3.64a18,18,0,0,0-.26-3.6,14.19,14.19,0,0,0-1.23-3.39,13.73,13.73,0,0,0-2.17-2.93,14.4,14.4,0,0,0-2.93-2.2,12.57,12.57,0,0,0-7.2-1.45,13.43,13.43,0,0,0-3.63.91,13.6,13.6,0,0,0-3.22,2A13.38,13.38,0,0,0,125,336.3a12.8,12.8,0,0,0-1.77,4.39,24.45,24.45,0,0,0-.23,4.78V355q0,9.48,0,18.57c0,12.11,0,23.62,0,34.36,0,21.45-.08,39.77-.1,53.38l-.18-.18,18.94.1,5.07,0,1.31,0,.46,0-.42,0-1.29,0-5,0-19.05.1h-.18v-.18c0-13.61-.06-31.93-.1-53.38,0-10.74,0-22.25,0-34.36q0-9.08,0-18.57v-9.57a25.41,25.41,0,0,1,.25-4.9,13.11,13.11,0,0,1,1.85-4.61,14,14,0,0,1,2.64-3,14.64,14.64,0,0,1,3.38-2.06,14.17,14.17,0,0,1,3.82-.95,14.62,14.62,0,0,1,3.91.2,13.2,13.2,0,0,1,10.29,10.28,18.75,18.75,0,0,1,.27,3.72v3.66c0,2.42,0,4.82,0,7.19q0,7.13,0,13.94c0,18.12-.07,34.45-.09,48.17s-.08,24.75-.11,32.42c0,3.8,0,6.76,0,8.79,0,1,0,1.74,0,2.27S148.41,461.35,148.41,461.35Z" style="fill:#ebebeb"></path><path d="M174.54,461.35s0-.28,0-.8,0-1.32,0-2.32c0-2.05,0-5-.05-8.86,0-7.69-.06-18.78-.1-32.47s-.06-30-.09-48.06q0-6.78,0-13.88V344.15a18,18,0,0,0-.26-3.6,13.8,13.8,0,0,0-1.24-3.39,14,14,0,0,0-2.16-2.93,12.56,12.56,0,0,0-6.41-3.46,14,14,0,0,0-3.72-.19,13.43,13.43,0,0,0-3.63.91,13.67,13.67,0,0,0-3.23,2,13.33,13.33,0,0,0-2.5,2.85,12.41,12.41,0,0,0-1.77,4.39,24.45,24.45,0,0,0-.23,4.78c0,3.21,0,6.41,0,9.57v18.57c0,12.11,0,23.62,0,34.36,0,21.45-.08,39.77-.11,53.38l-.17-.18,18.94.1,5.07,0,1.31,0,.46,0-.43,0-1.28,0-5,0-19.05.1h-.18v-.18c0-13.61-.06-31.93-.1-53.38,0-10.74,0-22.25,0-34.36q0-9.08,0-18.57v-9.57a25.39,25.39,0,0,1,.24-4.9,13.13,13.13,0,0,1,1.86-4.61,14,14,0,0,1,2.63-3,14.7,14.7,0,0,1,3.39-2.06,14.17,14.17,0,0,1,3.82-.95,14.64,14.64,0,0,1,3.91.2,13.2,13.2,0,0,1,6.73,3.64,13.18,13.18,0,0,1,3.56,6.64,18.75,18.75,0,0,1,.27,3.72v3.66q0,3.63,0,7.19,0,7.13,0,13.94c0,18.12-.07,34.45-.1,48.17s-.07,24.75-.1,32.42c0,3.8,0,6.76,0,8.79,0,1,0,1.74,0,2.27S174.54,461.35,174.54,461.35Z" style="fill:#ebebeb"></path><path d="M200.66,461.35s0-.28,0-.8,0-1.32,0-2.32c0-2.05,0-5-.05-8.86,0-7.69-.06-18.78-.1-32.47s-.06-30-.1-48.06q0-6.78,0-13.88,0-3.56,0-7.17v-3.64a18,18,0,0,0-.26-3.6,13.38,13.38,0,0,0-1.23-3.39,14,14,0,0,0-2.16-2.93,14.46,14.46,0,0,0-2.94-2.2,12.52,12.52,0,0,0-7.19-1.45,13.59,13.59,0,0,0-3.64.91,13.81,13.81,0,0,0-3.22,2,13.06,13.06,0,0,0-2.5,2.85,12.41,12.41,0,0,0-1.77,4.39,25.24,25.24,0,0,0-.24,4.78V355q0,9.48,0,18.57c0,12.11,0,23.62,0,34.36,0,21.45-.07,39.77-.1,53.38l-.18-.18,19,.1,5.06,0,1.32,0,.45,0-.42,0-1.28,0-5,0-19.05.1h-.17v-.18c0-13.61-.07-31.93-.11-53.38,0-10.74,0-22.25,0-34.36V345.47a24.62,24.62,0,0,1,.24-4.9,13.13,13.13,0,0,1,1.86-4.61,13.7,13.7,0,0,1,2.63-3,14.49,14.49,0,0,1,3.39-2.06,14,14,0,0,1,3.82-.95,14.54,14.54,0,0,1,3.9.2,14.12,14.12,0,0,1,3.65,1.33,14.26,14.26,0,0,1,3.08,2.31,14.48,14.48,0,0,1,2.28,3.07,14.82,14.82,0,0,1,1.29,3.57,18,18,0,0,1,.26,3.72V355q0,7.13,0,13.94c0,18.12-.06,34.45-.09,48.17s-.08,24.75-.1,32.42c0,3.8,0,6.76,0,8.79,0,1,0,1.74,0,2.27S200.66,461.35,200.66,461.35Z" style="fill:#ebebeb"></path><path d="M226.79,461.35s0-.28,0-.8,0-1.32,0-2.32c0-2.05,0-5,0-8.86,0-7.69-.06-18.78-.11-32.47s-.05-30-.09-48.06q0-6.78,0-13.88c0-2.37,0-4.76,0-7.17v-3.64a18,18,0,0,0-.26-3.6,12.57,12.57,0,0,0-3.4-6.32,14.4,14.4,0,0,0-2.93-2.2,12.52,12.52,0,0,0-7.19-1.45,13.59,13.59,0,0,0-3.64.91,13.81,13.81,0,0,0-3.22,2,13.38,13.38,0,0,0-2.51,2.85,12.58,12.58,0,0,0-1.76,4.39,23.69,23.69,0,0,0-.24,4.78V355q0,9.48,0,18.57c0,12.11,0,23.62,0,34.36,0,21.45-.07,39.77-.1,53.38l-.18-.18,19,.1,5.06,0,1.31,0,.46,0-.42,0-1.28,0-5,0-19.05.1h-.18v-.18c0-13.61-.06-31.93-.1-53.38,0-10.74,0-22.25,0-34.36q0-9.08,0-18.57v-9.57a25.41,25.41,0,0,1,.25-4.9A13.13,13.13,0,0,1,202.8,336a13.7,13.7,0,0,1,2.63-3,14.49,14.49,0,0,1,3.39-2.06,14,14,0,0,1,3.82-.95,14.54,14.54,0,0,1,3.9.2,14.12,14.12,0,0,1,3.65,1.33,14.26,14.26,0,0,1,3.08,2.31,13.18,13.18,0,0,1,3.56,6.64,18,18,0,0,1,.27,3.72V355q0,7.13,0,13.94c0,18.12-.06,34.45-.09,48.17s-.08,24.75-.1,32.42c0,3.8,0,6.76,0,8.79,0,1,0,1.74,0,2.27S226.79,461.35,226.79,461.35Z" style="fill:#ebebeb"></path><path d="M226.79,343.57c0,.18-29,.32-64.86.32s-64.88-.14-64.88-.32,29-.32,64.88-.32S226.79,343.4,226.79,343.57Z" style="fill:#ebebeb"></path><polygon points="305.33 285.83 20.34 285.83 19.13 250.1 304.13 250.1 305.33 285.83" style="fill:#f5f5f5"></polygon><polygon points="53.57 289.38 272.1 297.3 272.1 286.24 53.57 286.24 53.57 289.38" style="fill:#e0e0e0"></polygon><path d="M305.79,286.24c0,.18-63.93.32-142.78.32s-142.78-.14-142.78-.32,63.91-.32,142.78-.32S305.79,286.07,305.79,286.24Z" style="fill:#e0e0e0"></path><path d="M89.25,352.82c0,.17-8,.31-18,.31s-18-.14-18-.31,8-.32,18-.32S89.25,352.64,89.25,352.82Z" style="fill:#e0e0e0"></path><path d="M73.77,368.54c0,.18-4.57.32-10.22.32s-10.21-.14-10.21-.32,4.57-.32,10.21-.32S73.77,368.37,73.77,368.54Z" style="fill:#e0e0e0"></path><path d="M261.23,375.33c0,.17-4.58.31-10.22.31s-10.21-.14-10.21-.31S245.37,375,251,375,261.23,375.15,261.23,375.33Z" style="fill:#e0e0e0"></path><path d="M88.72,333.24c0,.17-8,.32-18,.32s-18-.15-18-.32,8-.32,18-.32S88.72,333.06,88.72,333.24Z" style="fill:#e0e0e0"></path><path d="M72.11,352.55c-.18,0-.32-4.15-.32-9.25s.14-9.26.32-9.26.32,4.14.32,9.26S72.29,352.55,72.11,352.55Z" style="fill:#e0e0e0"></path><path d="M272.1,391.62c0,.17-6.91.32-15.43.32s-15.43-.15-15.43-.32,6.91-.32,15.43-.32S272.1,391.44,272.1,391.62Z" style="fill:#e0e0e0"></path><path d="M264.94,407.88c-.18,0-.32-3.64-.32-8.13s.14-8.13.32-8.13.32,3.64.32,8.13S265.12,407.88,264.94,407.88Z" style="fill:#e0e0e0"></path><path d="M269.88,407.88c0,.18-6.45.32-14.41.32s-14.41-.14-14.41-.32,6.45-.31,14.41-.31S269.88,407.71,269.88,407.88Z" style="fill:#e0e0e0"></path><path d="M272.1,308.38c0,.18-49,.32-109.37.32s-109.39-.14-109.39-.32,49-.32,109.39-.32S272.1,308.2,272.1,308.38Z" style="fill:#e0e0e0"></path><path d="M272.1,293.8c0,.17-12.4.32-27.69.32s-27.7-.15-27.7-.32,12.4-.32,27.7-.32S272.1,293.62,272.1,293.8Z" style="fill:#e0e0e0"></path><path d="M228.89,308.87c-.18,0-.32-3.36-.32-7.52s.14-7.52.32-7.52.32,3.37.32,7.52S229.07,308.87,228.89,308.87Z" style="fill:#e0e0e0"></path><path d="M262.49,308.87c-.18,0-.32-3.36-.32-7.52s.14-7.52.32-7.52.32,3.37.32,7.52S262.67,308.87,262.49,308.87Z" style="fill:#e0e0e0"></path><rect x="42.28" y="459.87" width="245.15" height="17.28" style="fill:#f5f5f5"></rect><path d="M148.76,268.19c0,.18-20.27.32-45.26.32s-45.27-.14-45.27-.32,20.27-.31,45.27-.31S148.76,268,148.76,268.19Z" style="fill:#e0e0e0"></path><path d="M117.74,267.93c-.18,0-.32-4.15-.32-9.26s.14-9.25.32-9.25.32,4.14.32,9.25S117.91,267.93,117.74,267.93Z" style="fill:#e0e0e0"></path><path d="M97.2,286.41c-.18,0-.32-4.14-.32-9.25s.14-9.25.32-9.25.31,4.14.31,9.25S97.37,286.41,97.2,286.41Z" style="fill:#e0e0e0"></path><path d="M163,269.16c-.18,0-.32-4.14-.32-9.25s.14-9.25.32-9.25.32,4.14.32,9.25S163.18,269.16,163,269.16Z" style="fill:#e0e0e0"></path><path d="M141,286.41c-.18,0-.32-4.14-.32-9.25s.14-9.25.32-9.25.32,4.14.32,9.25S141.18,286.41,141,286.41Z" style="fill:#e0e0e0"></path><path d="M73.33,267.93c-.17,0-.32-4.15-.32-9.26s.15-9.25.32-9.25.32,4.14.32,9.25S73.51,267.93,73.33,267.93Z" style="fill:#e0e0e0"></path><path d="M287.43,459.87c0,.17-54.89.32-122.6.32S42.22,460,42.22,459.87s54.89-.32,122.61-.32S287.43,459.69,287.43,459.87Z" style="fill:#e0e0e0"></path><path d="M430.93,402a20.94,20.94,0,0,0-13-1.58c-2.35.39-4.8,1.1-6.4,2.86s-1.91,4.88-.07,6.4a6.14,6.14,0,0,0,4,1c3.43,0,7.23-.65,10,1.42,1.57,1.17,2.61,3.13,4.48,3.71a4.42,4.42,0,0,0,4.86-2.16,7.58,7.58,0,0,0,.55-5.58A8.52,8.52,0,0,0,430.93,402Z" style="fill:#ebebeb"></path><path d="M440,384.57c-2.41,3.45-7.1,2.31-9.27.2s-3.09-5.15-3.93-8.06c-1.91-6.64-3.84-13.6-2.42-20.37a11.38,11.38,0,0,1,2.6-5.54,5.92,5.92,0,0,1,5.61-1.86c2.36.62,3.83,2.94,4.89,5.14a48.53,48.53,0,0,1,4.8,20.84c0,3.36-.38,6.88-2.28,9.65" style="fill:#ebebeb"></path><path d="M446.59,389.52c-2.62-3.11-3.12-7.65-1.95-11.54a22.24,22.24,0,0,1,6.83-9.92,37,37,0,0,1,12.24-7.22,13.05,13.05,0,0,1,5.5-.93,5.78,5.78,0,0,1,4.62,2.79c1.29,2.46.05,5.44-1.28,7.87a92.52,92.52,0,0,1-8,12.24c-2.41,3.1-5.17,6.17-8.84,7.57s-7.48,1.24-9.43-1.31" style="fill:#ebebeb"></path><path d="M440.13,436.55a7.17,7.17,0,0,1-.22-1.57c-.11-1.14-.25-2.57-.42-4.27a61.76,61.76,0,0,0-1-6.27,47.54,47.54,0,0,0-2.28-7.39,27.39,27.39,0,0,0-3.77-6.7,14.3,14.3,0,0,0-4.78-4,13.27,13.27,0,0,0-4-1.25,6.69,6.69,0,0,1-1.56-.23,7.79,7.79,0,0,1,1.59,0A12.13,12.13,0,0,1,427.9,406a14,14,0,0,1,5,4,26.46,26.46,0,0,1,3.91,6.82,45.68,45.68,0,0,1,2.27,7.52,53.21,53.21,0,0,1,.83,6.35c.13,1.81.19,3.28.21,4.3A8.13,8.13,0,0,1,440.13,436.55Z" style="fill:#e0e0e0"></path><path d="M439.83,433.26a3.74,3.74,0,0,1,0-.73c0-.54,0-1.23,0-2.07,0-1.81,0-4.42-.1-7.64-.16-6.44-.71-13.38-1.78-23.15-1-9.2-2.38-19.9-3.82-26.85-.3-1.58-.61-3-.91-4.25s-.51-2.33-.74-3.2l-.49-2a3.76,3.76,0,0,1-.13-.72,2.6,2.6,0,0,1,.26.68c.16.52.35,1.18.6,2s.54,1.94.85,3.18.67,2.66,1,4.24a236.32,236.32,0,0,1,4,24.92c1.07,9.79,1.56,18.71,1.6,25.17,0,3.23,0,5.85-.11,7.65-.05.85-.1,1.53-.13,2.08A2.33,2.33,0,0,1,439.83,433.26Z" style="fill:#e0e0e0"></path><path d="M439.79,416.05a13.83,13.83,0,0,1,0-2.17c.08-1.39.27-3.41.66-5.88a79.45,79.45,0,0,1,1.91-8.56A71.3,71.3,0,0,1,446,389.3a54.18,54.18,0,0,1,10.52-16.38,27.71,27.71,0,0,1,2.48-2.3c.38-.32.71-.64,1.06-.89l1-.67a15.22,15.22,0,0,1,1.82-1.17,67.57,67.57,0,0,0-6,5.35,56.86,56.86,0,0,0-10.25,16.32,78.55,78.55,0,0,0-3.6,10,86.81,86.81,0,0,0-2,8.48c-.45,2.45-.71,4.44-.86,5.82A14.09,14.09,0,0,1,439.79,416.05Z" style="fill:#e0e0e0"></path><polygon points="456.42 446.41 454.7 470.03 424.35 470.03 422.63 446.41 456.42 446.41" style="fill:#e0e0e0"></polygon><rect x="419.01" y="437.1" width="40.34" height="9.31" style="fill:#e0e0e0"></rect><polygon points="459.35 469.12 459.35 471.7 457.46 471.7 419.67 471.7 419.67 469.12 459.35 469.12" style="fill:#ebebeb"></polygon><polygon points="455.6 476.25 457.46 471.7 421.12 471.7 423.29 476.25 455.6 476.25" style="fill:#e0e0e0"></polygon><path d="M423.19,454.13l.14.21.46.6,1.76,2.27.08.1.08-.11,4.34-6h-.25l4.28,6.06.13.19.15-.18,5.07-6h-.29l.28.35,4.53,5.69.15.19.14-.2,4.28-6.05h-.25l5.27,6,.09.11.08-.12c.69-1.17,1.24-2.1,1.65-2.77l.42-.74a1.56,1.56,0,0,0,.13-.26s-.07.07-.18.23l-.47.71-1.73,2.72h.17L448.51,451l-.13-.15-.12.16L444,457h.29l-4.53-5.69-.27-.35-.15-.18-.15.17-5.05,6h.28l-4.32-6-.12-.18-.13.18-4.25,6.07h.16c-.78-.92-1.4-1.66-1.84-2.2l-.5-.57Q423.21,454.12,423.19,454.13Z" style="fill:#f5f5f5"></path><path d="M422.21,446.25c0,.1,7.6.19,17,.19s17-.09,17-.19-7.6-.19-17-.19S422.21,446.15,422.21,446.25Z" style="fill:#f5f5f5"></path><path d="M420.67,472c0,.1,8.27.19,18.46.19s18.45-.09,18.45-.19-8.26-.19-18.45-.19S420.67,471.85,420.67,472Z" style="fill:#f5f5f5"></path><rect x="327.93" y="30.47" width="135.96" height="244.25" style="fill:#ebebeb"></rect><rect x="333.36" y="37.55" width="123.7" height="229.89" style="fill:#fafafa"></rect><polygon points="469.64 276.92 463.89 274.72 463.89 26.33 469.64 26.33 469.64 276.92" style="fill:#e0e0e0"></polygon><path d="M363.68,186.05l32.13-29.86c4.07-3.78,9.39-7.86,14.62-6,2.52.9,4.42,3.05,6.89,4.08,4.93,2,10.56-.91,14.35-4.68s6.79-8.47,11.38-11.2,11.73-2.38,14,2.46v32.5l-46.69,20Z" style="fill:#f5f5f5"></path><path d="M333.36,167.37c11.84-4.82,23.65-.72,32.12,8.85,1.79,2,3.41,4.34,5.86,5.45,3.32,1.51,7.15.38,10.77,0A27.09,27.09,0,0,1,407.59,194l-39.52,19.44-34.71-.25Z" style="fill:#e0e0e0"></path><path d="M457.06,167.53c-7.8-3.76-14.66.79-21.86,5.61s-13.87,11-22.31,12.94c-5.64,1.3-11.68.58-17.13,2.52-11.1,4-17.53,18.06-29.29,18.73-6.39.36-12.12-3.51-17.83-6.41s-10.2-5.67-15.28-1.78v68.3h123.7Z" style="fill:#ebebeb"></path><rect x="333.36" y="103.69" width="126.38" height="2.45" style="fill:#e0e0e0"></rect><rect x="333.36" y="158.43" width="126.38" height="2.45" style="fill:#e0e0e0"></rect><rect x="333.36" y="213.18" width="126.38" height="2.45" style="fill:#e0e0e0"></rect><rect x="310.68" y="186.31" width="169.05" height="6.25" transform="translate(205.77 584.64) rotate(-90)" style="fill:#e0e0e0"></rect><rect x="357.18" y="37.55" width="2.83" height="67.36" style="fill:#e0e0e0"></rect><rect x="381.6" y="37.55" width="2.83" height="67.36" style="fill:#e0e0e0"></rect><rect x="406.02" y="37.55" width="2.83" height="67.36" style="fill:#e0e0e0"></rect><rect x="430.43" y="37.55" width="2.83" height="67.36" style="fill:#e0e0e0"></rect><rect x="322.18" y="26.33" width="5.75" height="249.9" style="fill:#e0e0e0"></rect><rect x="322.18" y="23.81" width="147.46" height="6.66" style="fill:#e0e0e0"></rect><rect x="318.1" y="277.74" width="155.44" height="6.21" style="fill:#e0e0e0"></rect><polygon points="463.89 274.72 473.53 277.74 318.1 277.74 327.93 274.72 463.89 274.72" style="fill:#ebebeb"></polygon></g><g id="freepik--Floor--inject-113"><path d="M462.51,476.24c0,.15-95.15.27-212.5.27s-212.52-.12-212.52-.27S132.62,476,250,476,462.51,476.1,462.51,476.24Z" style="fill:#455a64"></path></g><g id="freepik--speech-bubble--inject-113"><circle cx="174.38" cy="80.96" r="27.13" transform="translate(-16.27 56.17) rotate(-17.5)" style="fill:#fff"></circle><path d="M201.55,102.72a6.17,6.17,0,0,0-.79.18,3.57,3.57,0,0,0-1.75,1.28,3.54,3.54,0,0,0-.61,1.36,3.07,3.07,0,0,0,.17,1.68,3.25,3.25,0,0,0,6.1.1,3,3,0,0,0,.22-1.68,3.35,3.35,0,0,0-.56-1.38,3.59,3.59,0,0,0-1.7-1.33c-.5-.18-.79-.18-.79-.21s.07,0,.21,0l.26,0a2,2,0,0,1,.35.09,3.5,3.5,0,0,1,1.81,1.32,3.43,3.43,0,0,1,.63,1.45,3.08,3.08,0,0,1-.22,1.8,3.61,3.61,0,0,1-1.25,1.56,3.4,3.4,0,0,1-2,.67,3.5,3.5,0,0,1-2-.73,3.79,3.79,0,0,1-1.2-1.6,3.08,3.08,0,0,1-.16-1.81,3.65,3.65,0,0,1,.67-1.43,3.49,3.49,0,0,1,1.86-1.26,2.85,2.85,0,0,1,.35-.08,1.19,1.19,0,0,1,.25,0C201.48,102.7,201.55,102.71,201.55,102.72Z" style="fill:#263238"></path><path d="M201.44,85.13s0-.15,0-.45.07-.73.12-1.29c0-.29.06-.6.09-1s0-.74,0-1.16,0-.87,0-1.35a4.72,4.72,0,0,0,0-.74c0-.25,0-.51-.08-.78a26.18,26.18,0,0,0-1.88-7.64,27.27,27.27,0,0,0-5.67-8.7l-1-1c-.36-.33-.76-.65-1.14-1l-.59-.5a5.79,5.79,0,0,0-.61-.47l-1.29-.88-.66-.45-.71-.39-1.42-.78c-.49-.25-1-.44-1.52-.67l-.78-.33a3.2,3.2,0,0,0-.39-.16l-.41-.13a25.21,25.21,0,0,0-3.34-.92c-.57-.11-1.15-.26-1.74-.34l-1.79-.18c-.31,0-.61-.08-.91-.08h-.92c-.61,0-1.23,0-1.86,0a28.42,28.42,0,0,0-3.74.5l-.95.19-.47.1-.46.14-1.87.57c-.61.22-1.21.5-1.83.74-.3.14-.62.24-.91.4l-.88.47A30.15,30.15,0,0,0,158.34,59l-1.6,1.3-.41.32L156,61l-.74.73-.75.74-.67.8-.68.8-.34.41c-.11.14-.2.29-.3.43l-1.21,1.76-1,1.88a27,27,0,0,0-2.61,17l.42,2.1c.21.68.41,1.36.62,2l.16.5.2.49.4,1,.41,1,.49.92.49.92.24.45.29.44L152.48,97a30.1,30.1,0,0,0,2.65,3.07l.7.71a9.19,9.19,0,0,0,.75.65c.51.42,1,.87,1.52,1.26l1.61,1.11.4.27c.13.09.28.16.42.24l.84.46a28.85,28.85,0,0,0,3.43,1.61c.58.22,1.18.38,1.76.57l.88.28c.29.08.59.13.89.19l1.76.37c.59.1,1.18.13,1.77.2a25.14,25.14,0,0,0,3.46.13h.43a3,3,0,0,0,.42,0L177,108c.55-.06,1.11-.09,1.65-.18l1.6-.32.78-.15.77-.23,1.5-.46a4.41,4.41,0,0,0,.72-.26l.71-.3c.46-.19.93-.37,1.38-.58l1.3-.69a27.17,27.17,0,0,0,8-6.58c.25-.3.5-.58.73-.87l.62-.9.6-.87c.09-.14.2-.28.28-.42l.24-.44.92-1.65c.28-.54.48-1.07.7-1.57l.31-.72a5.57,5.57,0,0,0,.27-.7l.41-1.28c.12-.4.25-.76.34-1.1s.14-.66.2-.94c.12-.55.21-1,.28-1.27s.1-.43.1-.43,0,.15-.08.43l-.25,1.28-.19.94c-.08.34-.21.71-.33,1.11s-.26.83-.4,1.29a4,4,0,0,1-.26.7l-.31.73c-.22.5-.42,1-.69,1.58L198,94.85l-.24.44c-.09.15-.19.29-.29.43l-.59.87-.62.91c-.23.29-.48.58-.73.88A27.21,27.21,0,0,1,187.5,105l-1.3.7c-.45.21-.92.39-1.39.59l-.71.29a4.93,4.93,0,0,1-.73.27l-1.51.47-.77.23-.79.16-1.61.32c-.55.1-1.11.12-1.67.19l-.84.08a3,3,0,0,1-.42,0h-.43a25.56,25.56,0,0,1-3.49-.12c-.59-.07-1.19-.1-1.78-.2l-1.78-.37c-.3-.07-.61-.11-.9-.2l-.88-.27c-.59-.19-1.2-.36-1.79-.58a29.87,29.87,0,0,1-3.45-1.61l-.85-.47c-.14-.08-.29-.15-.43-.24l-.4-.27L158,102.92c-.53-.4-1-.84-1.54-1.26-.25-.23-.52-.42-.76-.66l-.7-.72a30.61,30.61,0,0,1-2.68-3.09l-1.15-1.73-.29-.44-.25-.46-.49-.93-.5-.93-.41-1-.4-1-.21-.49-.16-.51c-.2-.68-.41-1.37-.62-2.06s-.29-1.41-.43-2.12A27.22,27.22,0,0,1,150,68.43l1.05-1.89c.4-.6.81-1.19,1.21-1.77.11-.15.2-.3.31-.44l.34-.41.69-.82.68-.8.75-.74.75-.74.38-.36.41-.33,1.61-1.3a29.32,29.32,0,0,1,3.48-2.14l.89-.48c.3-.16.62-.26.93-.4.61-.25,1.22-.52,1.84-.74l1.89-.58.46-.14.48-.1,1-.19a29,29,0,0,1,3.78-.5c.63,0,1.25,0,1.87,0h.93c.31,0,.61.06.91.09l1.81.18c.6.09,1.18.24,1.76.35a26,26,0,0,1,3.36.93l.41.13.4.16.78.34c.51.23,1,.42,1.53.68l1.43.79.71.39.67.45c.43.31.87.6,1.3.9a5.59,5.59,0,0,1,.61.48l.59.49c.38.33.78.65,1.15,1l1,1.06a27.07,27.07,0,0,1,5.67,8.77,26,26,0,0,1,1.85,7.68c0,.27.05.53.07.79a4.65,4.65,0,0,1,0,.74c0,.48,0,.93,0,1.35s0,.81,0,1.16-.08.67-.11,1c-.06.57-.11,1-.14,1.3Z" style="fill:#263238"></path><polygon points="178.7 66.8 168.84 81.9 175.25 81.9 170.91 95.12 183.3 77.97 176.7 77.97 178.7 66.8" style="fill:#FFC727"></polygon></g><g id="freepik--Character--inject-113"><path d="M132.49,264.63s73.41,57.28,73.28,60-4.67,8.2-7.18,16.33-2.31,70.65-2.31,70.65l21-1s27.32-89.22,22-101.28-48.07-50-48.92-50.94S132.49,264.63,132.49,264.63Z" style="fill:#263238"></path><circle cx="332.96" cy="403.96" r="60.59" transform="translate(-138.14 632.25) rotate(-76.36)" style="fill:#263238"></circle><path d="M383.84,404s0-.28-.07-.82-.08-1.38-.14-2.43c0-.54-.07-1.13-.11-1.79s-.2-1.37-.32-2.14l-.39-2.49a8.48,8.48,0,0,0-.29-1.36l-.38-1.43a48.49,48.49,0,0,0-5.65-13.58,50.84,50.84,0,0,0-13-14.47l-2.21-1.64c-.77-.51-1.59-1-2.39-1.47s-1.6-1-2.49-1.44l-2.64-1.27c-.45-.21-.89-.44-1.35-.64l-1.41-.51-2.87-1.05c-1-.32-2-.53-3-.8a24.54,24.54,0,0,0-3.08-.7,47,47,0,0,0-6.44-.75c-1.1,0-2.21-.14-3.32-.13l-3.37.18c-.57,0-1.14,0-1.7.11l-1.7.26c-1.13.18-2.29.32-3.43.55a55.11,55.11,0,0,0-6.79,2l-1.69.62c-.28.11-.56.2-.84.32l-.82.39-3.29,1.59c-1.07.58-2.1,1.26-3.17,1.89-.52.34-1.07.62-1.57,1l-1.5,1.12a56.75,56.75,0,0,0-5.77,4.91c-.86.94-1.73,1.89-2.59,2.85l-.65.71-.59.78-1.16,1.56-1.17,1.56-1,1.68-1,1.68-.52.85c-.15.29-.28.59-.43.89l-1.73,3.59-1.38,3.77a50.35,50.35,0,0,0,0,32.12l1.38,3.77c.58,1.2,1.15,2.4,1.73,3.59l.43.89.51.85,1,1.68,1,1.68,1.17,1.57,1.17,1.56.58.77.65.72,2.59,2.85a59.33,59.33,0,0,0,5.78,4.91L304,446c.49.37,1.05.66,1.57,1,1.07.63,2.1,1.31,3.17,1.9l3.29,1.58.82.4.84.31,1.69.62a53.42,53.42,0,0,0,6.79,2c1.14.24,2.3.37,3.43.56l1.7.26c.56.08,1.14.07,1.7.11l3.37.18c1.12,0,2.22-.1,3.32-.13a48.23,48.23,0,0,0,6.44-.75,26,26,0,0,0,3.08-.7c1-.27,2-.48,3-.8l2.86-1.05,1.42-.51,1.34-.64,2.65-1.27c.88-.4,1.66-1,2.48-1.44s1.62-1,2.4-1.47l2.2-1.64a51,51,0,0,0,13-14.47,48.73,48.73,0,0,0,5.65-13.58l.38-1.43a8.71,8.71,0,0,0,.29-1.36l.39-2.49c.12-.78.25-1.49.32-2.14s.07-1.26.11-1.79c.06-1.06.11-1.87.14-2.43s.07-.83.07-.83,0,.28,0,.83-.06,1.38-.1,2.44c0,.53-.05,1.13-.08,1.79s-.19,1.37-.29,2.15-.24,1.61-.37,2.5a8.83,8.83,0,0,1-.29,1.37q-.17.69-.36,1.44a48.54,48.54,0,0,1-5.6,13.68,51,51,0,0,1-13,14.61l-2.21,1.66c-.78.52-1.6,1-2.41,1.49s-1.61,1.05-2.5,1.46L354,450.66l-1.36.65-1.42.52-2.89,1.06c-1,.33-2,.54-3,.82a25,25,0,0,1-3.11.71,47.55,47.55,0,0,1-6.49.77c-1.11,0-2.23.15-3.35.14l-3.4-.17c-.57,0-1.15,0-1.72-.11l-1.71-.26c-1.15-.19-2.31-.32-3.46-.56a54,54,0,0,1-6.86-2l-1.71-.62c-.28-.11-.57-.2-.85-.32l-.83-.39-3.32-1.6c-1.08-.59-2.13-1.27-3.2-1.91-.53-.34-1.09-.62-1.59-1l-1.52-1.13a57.93,57.93,0,0,1-5.83-5l-2.62-2.87-.66-.73-.59-.78-1.18-1.57-1.18-1.58-1-1.7-1-1.7-.52-.85-.44-.9L285.32,424l-1.4-3.81a50.9,50.9,0,0,1,0-32.45c.47-1.27.93-2.54,1.4-3.8l1.74-3.63.44-.9.52-.85,1-1.7,1-1.69,1.19-1.59,1.17-1.57.6-.78.65-.72,2.62-2.88a56.55,56.55,0,0,1,5.83-4.95l1.52-1.13c.5-.38,1.06-.67,1.59-1,1.07-.64,2.12-1.32,3.2-1.91l3.33-1.6.82-.39c.28-.12.57-.22.85-.32l1.71-.63a55.67,55.67,0,0,1,6.86-2c1.15-.23,2.31-.37,3.45-.55l1.72-.26c.57-.08,1.15-.07,1.72-.11l3.4-.17c1.12,0,2.24.1,3.34.14a47.7,47.7,0,0,1,6.5.76,28.5,28.5,0,0,1,3.1.71c1,.28,2.05.5,3,.82l2.89,1.06,1.42.53c.46.2.9.43,1.35.64l2.67,1.29c.88.41,1.67,1,2.5,1.46s1.63,1,2.41,1.48l2.21,1.67a50.93,50.93,0,0,1,13,14.61,48.61,48.61,0,0,1,5.6,13.68q.2.74.36,1.44a8.59,8.59,0,0,1,.29,1.37c.13.89.25,1.72.37,2.5s.23,1.49.29,2.15.06,1.25.08,1.79c0,1.06.07,1.87.1,2.43S383.84,404,383.84,404Z" style="fill:#455a64"></path><path d="M297.74,261.48l54.6-19.66,13.78,6.23a3.48,3.48,0,0,1,1.57,4.94h0a3.48,3.48,0,0,1-4.36,1.45l-11.4-4.79-51.86,18.93Z" style="fill:#263238"></path><rect x="128.91" y="302.02" width="24.44" height="5.36" style="fill:#e0e0e0"></rect><path d="M153.35,307.37a2.75,2.75,0,0,1,0-.38c0-.29,0-.64,0-1.07,0-1-.05-2.28-.08-3.9l.14.15c-5.35.06-14.3.11-24.43.11h0l.26-.26h0v2.7c0,.89,0,1.77,0,2.63l-.25-.25c6.9,0,13,.06,17.34.11l5.17.08,1.41,0,.52,0s-.15,0-.45,0l-1.36,0-5.11.08c-4.36.05-10.51.1-17.52.11h-.26V302h0l.26-.26h0c10.13,0,19.08,0,24.43.11h.16V302c0,1.66-.06,3-.08,4S153.36,307.39,153.35,307.37Z" style="fill:#263238"></path><polygon points="143.02 469.06 180.38 388.12 185.2 396.42 152.06 469.06 143.02 469.06" style="fill:#e0e0e0"></polygon><path d="M143,469.06l.61,0,1.74,0,6.69-.06-.1.06c5.73-12.77,18.24-40.35,33-72.7v.24c-.78-1.35-1.63-2.8-2.47-4.26l-2.35-4,.46,0-26.55,57.23L146,462.71c-.94,2-1.68,3.6-2.2,4.69l-.58,1.23c-.13.28-.21.43-.21.43a3.29,3.29,0,0,1,.17-.4l.54-1.2,2.11-4.66c1.87-4.08,4.55-10,7.87-17.24,6.73-14.65,16-34.93,26.43-57.55l.21-.46.25.44,2.35,4c.84,1.46,1.69,2.91,2.47,4.26l.07.11-.06.13C170.67,428.88,158,456.4,152.16,469.1l0,.07h-.07l-6.77-.07-1.71,0Z" style="fill:#263238"></path><path d="M136.42,271.58c1.33,1,72.88,197.48,72.88,197.48h10L146.46,271.92Z" style="fill:#e0e0e0"></path><path d="M136.42,271.58l10,.26h0l0,.05c9.08,24.5,38.37,103.5,73.05,197.08l.13.35h-10.6l-.06-.18C188.93,414.08,170.87,364.66,157.84,329c-6.57-17.8-11.88-32.16-15.54-42.09C140.43,282,139,278.11,138,275.5c-.51-1.28-.89-2.26-1.16-2.94a10.62,10.62,0,0,0-.43-1,2,2,0,0,1,.14.23c.08.16.2.41.34.73.29.65.69,1.64,1.2,2.93,1,2.58,2.51,6.4,4.38,11.35,3.75,9.88,9.11,24.24,15.7,42,13.17,35.61,31.29,85,51.36,140.11l-.24-.17h10l-.25.35-72.7-197.21.06.05Z" style="fill:#263238"></path><path d="M223,377.62s-49.9-11.7-49.93,34.91c0,19.7,13.56,31.29,28,33,12.85,1.54,55-5.73,55-5.73l82.65-16.3c3.71-2.71,6.06-20.18-1.32-25S223,377.62,223,377.62Z" style="fill:#455a64"></path><path d="M313,309.49c.06.2-84.54,69-84.54,69L245.16,383l73.58-56.29h0Z" style="fill:#e0e0e0"></path><path d="M313,309.49a2.73,2.73,0,0,1,.11.28l.3.86c.27.77.65,1.89,1.15,3.34,1,2.95,2.45,7.25,4.29,12.71l0,.09-.08.06-73.5,56.38-.1.08-.13,0-7.53-2-9.15-2.47-.49-.14.4-.32c47.31-38.44,82.58-67.1,84.7-68.81,0,0-.13.14-.4.38s-.7.61-1.24,1.06l-4.8,4-17.9,14.73-60,49-.09-.46,9.15,2.47,7.53,2-.23,0,73.65-56.19,0,.15L314.44,314l-1.08-3.37q-.17-.56-.27-.87A1.62,1.62,0,0,1,313,309.49Z" style="fill:#263238"></path><path d="M137.52,268.24a13.69,13.69,0,0,0-12.81,9.45,8.65,8.65,0,0,0-.31,4.27c1.17,5.62,4.86,7.31,9.16,7.9s5.86-2.06,12.76-1.86,40.86-1.09,41.11-2.45,2.79-4.29-3.4-7.64C179,275.18,152.54,267.81,137.52,268.24Z" style="fill:#455a64"></path><path d="M207.68,434.7a24.76,24.76,0,1,1,24.76-24.76A24.79,24.79,0,0,1,207.68,434.7Zm0-48.52a23.76,23.76,0,1,0,23.76,23.76A23.79,23.79,0,0,0,207.68,386.18Z" style="fill:#263238"></path><rect x="204.74" y="383.01" width="6.77" height="27.83" style="fill:#263238"></rect><path d="M291.22,273.61l63.4,199.56h9.92l-66.8-211.69h0A9.6,9.6,0,0,0,291.22,273.61Z" style="fill:#e0e0e0"></path><path d="M291.22,273.61a11.15,11.15,0,0,1-.3-1.13,9.38,9.38,0,0,1,0-3.46,9,9,0,0,1,.77-2.44,9.22,9.22,0,0,1,1.73-2.55,9.77,9.77,0,0,1,2.92-2.1,6.66,6.66,0,0,1,.91-.37l.48-.16c-.1-.06.16.06.14.06v0l0,.06,0,.12.08.24.64,2,14.81,46.64c12.45,39.4,29.65,93.82,48.65,153.92.91,2.89,1.82,5.78,2.72,8.61l.1.34H354.43l-.06-.19c-17.74-56-33.56-105.85-44.95-141.76L296,289.09c-1.56-5-2.77-8.85-3.6-11.48l-.92-3c-.2-.67-.3-1-.3-1s.13.34.35,1,.54,1.67,1,3c.84,2.63,2.08,6.48,3.68,11.45,3.19,10,7.8,24.41,13.54,42.34,11.42,35.9,27.3,85.78,45.1,141.72l-.24-.18h9.92l-.25.33c-.89-2.83-1.8-5.71-2.72-8.6-18.94-60.12-36.09-114.56-48.51-154L298.42,264l-.63-2-.08-.24,0-.12,0-.06v0s.2.11.09.06l-.47.16a5.78,5.78,0,0,0-.9.35,9.71,9.71,0,0,0-2.88,2.05,9.31,9.31,0,0,0-1.73,2.5A9.41,9.41,0,0,0,291,269a9.69,9.69,0,0,0,0,3.43c.06.38.15.66.19.85A2.52,2.52,0,0,1,291.22,273.61Z" style="fill:#263238"></path><rect x="118.58" y="469.06" width="277.23" height="7.7" rx="3.71" style="fill:#455a64"></rect><polygon points="264.5 349.19 266.5 366.69 273.61 361.24 271.5 343.47 264.5 349.19" style="fill:#455a64"></polygon><path d="M303.69,327.55c.09.11-5.86,4.82-13.28,10.52s-13.52,10.22-13.61,10.1,5.86-4.82,13.29-10.52S303.6,327.43,303.69,327.55Z" style="fill:#455a64"></path><circle cx="207.61" cy="409.94" r="8.28" transform="matrix(0.16, -0.99, 0.99, 0.16, -230.35, 549.02)" style="fill:#263238"></circle><path d="M280,178c-2.72,1-5.9-.43-7.62-2.77a13.82,13.82,0,0,1-2.19-8.26c0-2.9.47-5.79.41-8.69A25,25,0,0,0,261,139.25l-25.66-3A189,189,0,0,1,246.7,171a66.84,66.84,0,0,0,2.82,10.72,17.44,17.44,0,0,0,6.7,8.61,15.93,15.93,0,0,0,11.54,1.6,31.29,31.29,0,0,0,10.77-5,14.35,14.35,0,0,1-8.33-4.57A8,8,0,0,0,280,178Z" style="fill:#263238"></path><path d="M275.41,187.91a2,2,0,0,1-.37.31,8.12,8.12,0,0,1-1.21.72,10.64,10.64,0,0,1-5,1.08,10.26,10.26,0,0,1-7-2.92,10.94,10.94,0,0,1-3.28-8.62c.14-1.69.59-3.25.82-4.77a12.6,12.6,0,0,0-.05-4.38c-.51-2.78-1.46-5.21-1.82-7.37a11.9,11.9,0,0,1,0-5.15,6.67,6.67,0,0,1,.49-1.31,2.46,2.46,0,0,1,.26-.42,18,18,0,0,0-.55,1.78,12.34,12.34,0,0,0,.12,5c.4,2.11,1.38,4.51,1.93,7.35a12.82,12.82,0,0,1,.08,4.55c-.23,1.56-.67,3.11-.8,4.73a10.57,10.57,0,0,0,3.09,8.24,10,10,0,0,0,6.67,2.89,11,11,0,0,0,4.93-.89C274.84,188.27,275.38,187.86,275.41,187.91Z" style="fill:#455a64"></path><path d="M275.89,177.69s-.09.06-.28.13a3.33,3.33,0,0,1-.87.18,6.16,6.16,0,0,1-3.2-.62c-2.55-1.16-5.27-4.11-7-7.93A27.27,27.27,0,0,1,262.3,159c0-1.36,0-2.47.05-3.23a5.23,5.23,0,0,1,.14-1.18,5.46,5.46,0,0,1,.06,1.19c0,.76,0,1.85.12,3.2A29.16,29.16,0,0,0,265,169.24c1.69,3.73,4.3,6.62,6.69,7.8a6.3,6.3,0,0,0,3,.76C275.47,177.78,275.87,177.64,275.89,177.69Z" style="fill:#455a64"></path><path d="M247.08,81.71c-6.25-.82-12.69,2.82-15.69,8.37a19.29,19.29,0,0,0,.39,18.12l27.16-13.8C258.76,88.1,253.32,82.53,247.08,81.71Z" style="fill:#263238"></path><path d="M249.14,89.84A3.39,3.39,0,0,1,247.79,92a15.82,15.82,0,0,1-2.49,1.75,15.45,15.45,0,0,1-2.75,1.3,3.39,3.39,0,0,1-2.53.12c-.71-.35-1.1-1.31-.79-2.63a5.77,5.77,0,0,1,1-2,7.62,7.62,0,0,1,2.09-1.82,7.49,7.49,0,0,1,2.62-.92,5.62,5.62,0,0,1,2.28.13C248.55,88.23,249.19,89.05,249.14,89.84Z" style="fill:#FFC727"></path><path d="M221.64,112.76c.48-3.09,2.86-5.55,5.41-7.35s5.42-3.21,7.67-5.38c2.44-2.35,4-5.5,6.64-7.66a12.41,12.41,0,0,1,9.85-2.63c2.09.35,4.14,1.26,6.25,1s4-1.71,6-2.58c3.26-1.43,6.25-2.54,9.8-2.21,4,.38,9.14,2.44,11.73,5.56a10.81,10.81,0,0,1,2.26,7.11,22.54,22.54,0,0,1-1.62,7.4c3,2.46,3.15,7,3,10.88a20.73,20.73,0,0,1-4.55,11.93c-1.6,1.86-7.81,10.74-12.72,11.86-12.35,2.81-12.6-2.7-25.26-2.5-4.89.08-9.78,3.64-14,1.18-4.92-2.87-9.7-5.67-10.44-11.32s-2-11.26.28-16.5" style="fill:#263238"></path><path d="M281.62,124.83c3.45-7.16,3.65-18.21-3.64-21.36L253.43,96.8a4.64,4.64,0,0,0-5.94,2.07L220.6,152l-.17-.05s-3.37,17.36,13.34,20.93c3.31.71,6.34-1.64,8.69-4.49l.13.1c.22-.37.43-.72.63-1.07a38.78,38.78,0,0,0,4.11-7.06h0c2.41-4.16,3.37-5.87,3.35-5.83s9.65,3.5,18-7C272.78,142.32,277.78,132.77,281.62,124.83Z" style="fill:#c28672"></path><path d="M259.18,124.13a1.69,1.69,0,0,1-2.26.69,1.61,1.61,0,0,1-.77-2.19,1.7,1.7,0,0,1,2.26-.69A1.62,1.62,0,0,1,259.18,124.13Z" style="fill:#263238"></path><path d="M274.57,132.33a1.69,1.69,0,0,1-2.26.68,1.62,1.62,0,0,1-.77-2.18,1.68,1.68,0,0,1,2.26-.69A1.61,1.61,0,0,1,274.57,132.33Z" style="fill:#263238"></path><path d="M277.32,129.1c-.32.16-1.08-1.55-2.87-2.4s-3.6-.44-3.67-.79c0-.16.38-.52,1.18-.73a4.48,4.48,0,0,1,5.22,2.54C277.51,128.48,277.48,129,277.32,129.1Z" style="fill:#263238"></path><path d="M261,120.69c-.35.11-1-1.68-2.82-2.78s-3.72-1-3.78-1.3c0-.17.44-.46,1.29-.56a5.12,5.12,0,0,1,3.2.75,5,5,0,0,1,2.07,2.51C261.2,120.11,261.14,120.65,261,120.69Z" style="fill:#263238"></path><path d="M260.18,135.1a12,12,0,0,1,2.84,1c.43.19.86.33,1.08.09a2.38,2.38,0,0,0,.41-1.36c.17-1.19.35-2.45.54-3.76.81-5.34,1.64-9.64,1.86-9.6s-.27,4.39-1.08,9.72c-.21,1.31-.41,2.56-.61,3.76a2.64,2.64,0,0,1-.68,1.71,1.19,1.19,0,0,1-1,.22,3.36,3.36,0,0,1-.75-.29A12.13,12.13,0,0,1,260.18,135.1Z" style="fill:#263238"></path><path d="M250.68,154.52a33.71,33.71,0,0,1-13.1-12.8s-.72,10.34,11.41,15.76Z" style="fill:#8b5c4d"></path><path d="M257.35,138.55a3.3,3.3,0,0,0-2-2.51,3,3,0,0,0-2.35,0,1.88,1.88,0,0,0-1.19,1.82,2.19,2.19,0,0,0,1.78,1.7,6.93,6.93,0,0,0,2.72-.07,2,2,0,0,0,.71-.21.61.61,0,0,0,.34-.59" style="fill:#8b5c4d"></path><path d="M254.88,133.56c.27.13-.7,1.86.09,3.91s2.73,2.9,2.6,3.15-.6.11-1.38-.31a4.88,4.88,0,0,1-2.23-2.53,4.29,4.29,0,0,1,0-3.22C254.34,133.8,254.77,133.48,254.88,133.56Z" style="fill:#263238"></path><path d="M264.27,115.45c-.4.34-1.87-.76-3.86-1.58s-3.79-1.17-3.81-1.69c0-.25.48-.51,1.32-.59a7.2,7.2,0,0,1,5.85,2.5C264.3,114.75,264.45,115.28,264.27,115.45Z" style="fill:#263238"></path><path d="M278.83,123.63c-.52.18-1.56-.9-3.05-1.76s-2.92-1.32-3-1.87c0-.25.38-.5,1.13-.53a5.42,5.42,0,0,1,2.83.82,5.24,5.24,0,0,1,2,2.11C279.11,123.07,279.07,123.54,278.83,123.63Z" style="fill:#263238"></path><path d="M247.94,95.41c2.05-.88,4.41-.46,6.59,0a121.51,121.51,0,0,1,27.17,9.61c-.11,2.29-2.5,3.9-4.79,4.09s-4.51-.63-6.74-1.15-4.75-.73-6.66.54-2.86,4-4.82,5.45c-3.38,2.49-8.66.48-12,3-2.54,1.9-1.45,1.74-2.84,4.59-1.57,3.23-3.78,2.67-7.32,3.28-2.8.48-7.55.21-9.93-1.31,5.76-9.78,10.91-13.21,16.66-23C244.43,98.5,245.77,96.34,247.94,95.41Z" style="fill:#263238"></path><path d="M293,108.71a15.79,15.79,0,0,0-3.85-2,16,16,0,0,0-4.3-.56,3.94,3.94,0,0,1,1.29-.17,10.07,10.07,0,0,1,5.9,1.83A3.81,3.81,0,0,1,293,108.71Z" style="fill:#263238"></path><path d="M291.53,100.18a4.36,4.36,0,0,1-.56,1.27,12,12,0,0,1-2.06,2.65,12.16,12.16,0,0,1-2.72,2,4.56,4.56,0,0,1-1.29.52,19.52,19.52,0,0,0,3.8-2.71A19.23,19.23,0,0,0,291.53,100.18Z" style="fill:#263238"></path><path d="M242.11,116.3c-.13-.18-6-6.37-10,1s4.19,9.81,4.31,9.6S242.11,116.3,242.11,116.3Z" style="fill:#c28672"></path><path d="M235.75,122.87c0-.05-.18,0-.45,0a1.45,1.45,0,0,1-1-.5c-.62-.71-.6-2.29.08-3.63a4.86,4.86,0,0,1,1.35-1.63,1.7,1.7,0,0,1,1.49-.46.73.73,0,0,1,.56.76c0,.26-.13.38-.1.42s.22,0,.33-.38a.94.94,0,0,0,0-.61,1.11,1.11,0,0,0-.61-.57,2,2,0,0,0-1.94.41,4.93,4.93,0,0,0-1.56,1.8c-.75,1.5-.75,3.29.14,4.17a1.54,1.54,0,0,0,1.27.44C235.64,123,235.77,122.89,235.75,122.87Z" style="fill:#8b5c4d"></path><path d="M229.78,103.62c-.06-.09,1.69-1.12,4.17-3.17a19.59,19.59,0,0,0,3.71-4.23,17.76,17.76,0,0,1,5-5,13.16,13.16,0,0,1,6.81-1.75,35.83,35.83,0,0,1,5.65.9,8.49,8.49,0,0,0,3.74-.08c.87-.23,1.32-.46,1.34-.41s-.1.08-.31.19a5.08,5.08,0,0,1-1,.41,8.15,8.15,0,0,1-3.86.25,40,40,0,0,0-5.6-.78,13.08,13.08,0,0,0-6.53,1.71,17.77,17.77,0,0,0-4.85,4.81,18.89,18.89,0,0,1-3.87,4.22,31.19,31.19,0,0,1-3.16,2.21A6.65,6.65,0,0,1,229.78,103.62Z" style="fill:#455a64"></path><path d="M238.77,96a15.41,15.41,0,0,0,1,2.14,10.1,10.1,0,0,0,4.95,3.85,11.68,11.68,0,0,0,4.3.76,16.67,16.67,0,0,0,5-.84c3.43-1.07,6.82-3.16,10.39-5.32s7.19-4.07,10.9-4.47a8,8,0,0,1,5.08,1,7.1,7.1,0,0,1,2.79,3.56,8.54,8.54,0,0,1,.46,3.7,10.47,10.47,0,0,1-.63,2.74,12.73,12.73,0,0,1-.73,1.61,2.14,2.14,0,0,1-.34.52s.4-.75.88-2.2a9.36,9.36,0,0,0,0-6.24,6.72,6.72,0,0,0-2.67-3.33,7.56,7.56,0,0,0-4.81-.9c-3.55.4-7.13,2.31-10.68,4.43s-7,4.27-10.51,5.34a17,17,0,0,1-5.11.81,11.9,11.9,0,0,1-4.44-.85,10.12,10.12,0,0,1-5-4.09A6.22,6.22,0,0,1,238.77,96Z" style="fill:#455a64"></path><path d="M277.89,107.58a6.53,6.53,0,0,0,.22-1.86,5.66,5.66,0,0,0-2.55-4.17c-1.78-1.2-4.52-1.46-7.28-.75s-5.6,2.26-8.83,3.25a29.08,29.08,0,0,1-9.38,1.38,22.32,22.32,0,0,1-7.59-1.54,18.15,18.15,0,0,1-4.54-2.56,12,12,0,0,1-1.08-.92,2.65,2.65,0,0,1-.34-.36s.54.42,1.54,1.12a20.07,20.07,0,0,0,4.56,2.38,22.58,22.58,0,0,0,7.46,1.4,29,29,0,0,0,9.21-1.4c3.17-1,6-2.54,8.88-3.22s5.72-.4,7.6.91a5.78,5.78,0,0,1,2.54,4.47,4.08,4.08,0,0,1-.21,1.42A2,2,0,0,1,277.89,107.58Z" style="fill:#455a64"></path><path d="M220.55,350.39l-9,22.5s19.85,16.69,18.6,21l-44.26-15.85,12.55-35.63Z" style="fill:#FFC727"></path><path d="M198.57,366.08a1.91,1.91,0,0,0-2,1.61,1.85,1.85,0,0,0,1.58,2,2,2,0,0,0,2.1-1.73c0-.94-.95-2-1.88-1.88" style="fill:#e0e0e0"></path><g style="opacity:0.6000000000000001"><path d="M185.91,378.05l1.41-3.54L229.23,391s1.66,1.56.94,2.87Z" style="fill:#fff"></path></g><path d="M212.36,372.92c-.08.22-1.2-.07-2.51.24s-2.2,1-2.37.87.6-1.29,2.19-1.65S212.48,372.74,212.36,372.92Z" style="fill:#263238"></path><path d="M216.32,376.51c0,.22-1.09.26-2.16.91s-1.62,1.54-1.83,1.45.09-1.35,1.43-2.14S216.39,376.3,216.32,376.51Z" style="fill:#263238"></path><path d="M217,383c-.22,0-.13-1.22.85-2.2s2.16-1.09,2.18-.88-.82.62-1.61,1.44S217.19,383.06,217,383Z" style="fill:#263238"></path><path d="M213.84,367.57c-.16.16-1.05-.49-2.3-.84s-2.34-.31-2.38-.54,1.14-.67,2.61-.23S214,367.44,213.84,367.57Z" style="fill:#263238"></path><path d="M213,238.72s4.45,1.2,12.33,4.17c3.94,1.5,8.75,3.43,14.21,6,2.73,1.29,5.62,2.74,8.6,4.46a52,52,0,0,1,9,6.2A17.07,17.07,0,0,1,262.79,270a24.35,24.35,0,0,1,.14,6.45,34,34,0,0,1-1.35,6.57,37.82,37.82,0,0,1-2.59,6.47c-1.1,2.11-2.48,4-3.7,6.16-2.52,4.16-5,8.5-7.63,13-10.33,17.86-21.62,37.81-33.6,59.1l-.1.19-.2-.07-22.69-7.66-.23-.08.07-.24c1.25-4.33,2.64-8.95,4.08-13.6,3.53-11.31,7.16-22.34,11.23-32.85A165.73,165.73,0,0,1,213,298.2a90.16,90.16,0,0,1,8.32-13.68l.21.41c-10.37.82-20.38.23-29.92-.32-4.77-.28-9.43-.64-14-1.17s-8.9-1.31-13.11-2.24c-16.85-3.81-30.51-12.05-38.73-21.65a30.28,30.28,0,0,1-4.51-7.74,28.56,28.56,0,0,1-1.83-7.73,34.47,34.47,0,0,1,1.2-12.48,41.46,41.46,0,0,1,2.83-7.33c.4-.8.73-1.39,1-1.78s.37-.58.37-.58-.11.21-.33.6-.54,1-.93,1.8a43,43,0,0,0-2.74,7.33,34.57,34.57,0,0,0-1.13,12.42,28.85,28.85,0,0,0,1.85,7.65,30.35,30.35,0,0,0,4.5,7.65,40.32,40.32,0,0,0,7.12,6.82,50,50,0,0,0,4.27,3.13c1.45,1.08,3.07,1.95,4.68,2.92a82.06,82.06,0,0,0,22.51,8.56c4.2.92,8.56,1.67,13.07,2.21s9.16.87,13.93,1.15c9.53.54,19.54,1.11,29.84.29l.56-.05-.34.45a89.19,89.19,0,0,0-8.25,13.59,163.6,163.6,0,0,0-6.72,15.14c-4.06,10.49-7.69,21.52-11.21,32.81-1.44,4.65-2.83,9.27-4.08,13.6l-.17-.32,22.68,7.67-.3.11c12-21.28,23.3-41.22,33.65-59.08,2.61-4.46,5.13-8.79,7.66-12.95,1.22-2.1,2.62-4.07,3.7-6.13a37.77,37.77,0,0,0,2.57-6.39,32.67,32.67,0,0,0,1.34-6.5,23.69,23.69,0,0,0-.11-6.36,16.73,16.73,0,0,0-5.58-10.24,53,53,0,0,0-8.9-6.2c-3-1.71-5.84-3.18-8.56-4.47-5.44-2.59-10.23-4.54-14.16-6.06s-7-2.59-9.09-3.28c-1-.36-1.85-.61-2.38-.79Z" style="fill:#455a64"></path><path d="M124.28,222.82s-.85-.43,5.33-9,35-40,47-48.79S211.7,143.28,219.51,143s13.26.93,15.32,4.75.46,43.62.46,55c0,13.28-15.66,20-19.3,20.33-4.91.46-15.25,1.06-15.25,1.06l-9.53,5s5.71,7.65,7,16.46l-51,2.06Z" style="fill:#FFC727"></path><g style="opacity:0.30000000000000004"><path d="M208.82,162.52l-.14.46c-.38,12.9,4.78,29.46,10.73,42.11a4.49,4.49,0,0,0,1,1.58c1.13,1,2.84.58,4.21.05s2.88-1.21,4.27-.71c1.22.44,2,1.67,3.06,2.4a1.78,1.78,0,0,0,2.72-1.35C224.83,193.12,216.6,177.74,208.82,162.52Z"></path></g><path d="M223.48,143.2S204.62,153.43,210,170.74c3.14,10,15.07,32,15.07,32l33.67-10.33s-18.19-39.53-23.94-44.7S223.48,143.2,223.48,143.2Z" style="fill:#FFC727"></path><path d="M163.11,217a7,7,0,0,1,1.23,0,13.2,13.2,0,0,1,1.44.07c.56,0,1.2.09,1.9.22a33.64,33.64,0,0,1,4.85,1.09,45.5,45.5,0,0,1,5.66,2.25,62.38,62.38,0,0,1,9.44,5.71c1.14.83,2.05,1.52,2.66,2a5.48,5.48,0,0,1,.92.81,6,6,0,0,1-1-.65l-2.75-1.88a76.69,76.69,0,0,0-9.46-5.54,49.9,49.9,0,0,0-5.58-2.26,36.63,36.63,0,0,0-4.76-1.19C164.86,217.14,163.11,217.13,163.11,217Z" style="fill:#263238"></path><path d="M193.6,227.25a3.23,3.23,0,0,1-.88-.23c-.56-.18-1.36-.47-2.32-.88a43.24,43.24,0,0,1-7.19-3.91,42.42,42.42,0,0,1-6.3-5.22c-.74-.74-1.31-1.37-1.68-1.82s-.57-.71-.54-.74.95.89,2.47,2.3a55,55,0,0,0,6.35,5.05,54.45,54.45,0,0,0,7,4C192.43,226.7,193.63,227.17,193.6,227.25Z" style="fill:#263238"></path><g style="opacity:0.30000000000000004"><path d="M184.62,222.85a43.22,43.22,0,0,1-6.47-5,40.58,40.58,0,0,1-2.86-3.54,11.6,11.6,0,0,0-3.32-3.08,5.1,5.1,0,0,0-4.38-.43,3.32,3.32,0,0,0-2,3.65,4.42,4.42,0,0,0,1.79,2.33c2.32,1.73,5.23,2.41,8,3.33,5.83,1.95,8.13,3.18,15.89,9.06l2.94-1.52A33.68,33.68,0,0,1,184.62,222.85Z"></path></g><path d="M194.15,153.88c-5.71,3.37-10,5.89-14.76,9.23l21.35,61,12.77-.83Z" style="fill:#f5f5f5"></path><path d="M197.41,225.89a3.19,3.19,0,0,1-.33-.55l-.85-1.65c-.74-1.43-1.75-3.53-3-6.13-2.43-5.22-5.58-12.53-8.66-20.75s-5.5-15.82-7.08-21.35c-.8-2.76-1.4-5-1.79-6.58-.18-.73-.32-1.33-.43-1.8a2.52,2.52,0,0,1-.12-.63,2.71,2.71,0,0,1,.22.61c.13.45.31,1,.53,1.77.44,1.55,1.1,3.78,1.94,6.53,1.67,5.5,4.15,13,7.22,21.26s6.16,15.54,8.51,20.78c1.17,2.63,2.13,4.75,2.81,6.2l.77,1.69A2.73,2.73,0,0,1,197.41,225.89Z" style="fill:#f5f5f5"></path><polygon points="217.81 188.64 251.64 177.45 255.41 185.25 222.37 197.61 217.81 188.64" style="fill:#f5f5f5"></polygon><path d="M257.38,192.85a2.61,2.61,0,0,1-.61.23l-1.77.59-6.66,2.12L225.17,203l-.2.06-.09-.18c-2.25-4.39-4.93-9.07-7.56-14a83.32,83.32,0,0,1-7.37-17.9,44.17,44.17,0,0,1-1.34-8.37,32,32,0,0,1,.16-7.38,12.63,12.63,0,0,1,2.45-5.57,17.66,17.66,0,0,1,3.27-3.24,22.42,22.42,0,0,1,2.42-1.61c.29-.17.52-.28.67-.35l.23-.11a7.06,7.06,0,0,1-.84.55,25.75,25.75,0,0,0-2.35,1.68,18.22,18.22,0,0,0-3.16,3.25,12.39,12.39,0,0,0-2.33,5.46,33.15,33.15,0,0,0-.09,7.29,43.93,43.93,0,0,0,1.38,8.27,84.16,84.16,0,0,0,7.36,17.79c2.62,5,5.3,9.63,7.54,14l-.29-.12,23.22-7,6.71-2,1.79-.51A4.46,4.46,0,0,1,257.38,192.85Z" style="fill:#263238"></path><path d="M124.81,221.91s-15.39,24,5.78,42.42,47.29,18.92,67.36,20.4c15.35,1.14,23.53-.05,23.53-.05s-7.07,8.53-14.77,28.14-15.55,47.09-15.55,47.09l22.68,7.66s36.19-64.42,43.79-76.12c3.56-5.5,9.23-20.77,1.14-30S224.89,242.32,213,238.72s-48.89-13.21-48.89-13.21S132.51,218.71,124.81,221.91Z" style="fill:#263238"></path><path d="M195.8,361.18s4.29-12.06,13-30.81c4.37-9.37,9.88-20.38,16.57-32.3,1.68-3,3.43-6,5.24-9.09q1.38-2.3,2.78-4.65a4.61,4.61,0,0,0-2.18-6.6,12.08,12.08,0,0,0-2.7-.53l-5.66-.75c-3.81-.47-7.68-.9-11.6-1.32-7.83-.84-15.5-1.59-22.88-2.5-3.69-.45-7.31-.93-10.85-1.49a101.28,101.28,0,0,1-10.32-2,116.38,116.38,0,0,1-18.27-6.57,46.61,46.61,0,0,1-7.68-4.33,43.41,43.41,0,0,1-6.13-5.34c-1.8-1.87-3.37-3.77-4.84-5.58a21,21,0,0,1-3.48-5.59,21.84,21.84,0,0,1-1.42-10.39,27,27,0,0,1,1.46-6.49,6.08,6.08,0,0,1,1-2.06,9.31,9.31,0,0,0-.88,2.09,28.13,28.13,0,0,0-1.36,6.48,21.77,21.77,0,0,0,1.49,10.26,20.49,20.49,0,0,0,3.47,5.49c1.47,1.8,3.05,3.69,4.84,5.53a43.41,43.41,0,0,0,6.11,5.27,45.37,45.37,0,0,0,7.62,4.26,114.34,114.34,0,0,0,18.21,6.5,101.68,101.68,0,0,0,10.28,1.94c3.53.55,7.15,1,10.83,1.48,7.38.9,15,1.65,22.88,2.48q5.88.63,11.6,1.33l5.67.75a12.47,12.47,0,0,1,2.82.56,5.13,5.13,0,0,1,2.43,7.34L231,289.23q-2.73,4.62-5.25,9.08c-6.7,11.89-12.25,22.87-16.66,32.21s-7.68,17-9.91,22.36c-1.09,2.66-1.94,4.73-2.52,6.16-.29.69-.51,1.22-.66,1.6S195.8,361.18,195.8,361.18Z" style="fill:#455a64"></path><path d="M200.26,363s.07-.19.24-.56.42-.91.75-1.61c.67-1.43,1.66-3.51,2.93-6.18,2.56-5.35,6.28-13.1,10.94-22.64s10.27-20.87,16.69-33.35c3.2-6.24,6.66-12.77,10.25-19.47a4.79,4.79,0,0,0-.64-5.15,4.35,4.35,0,0,0-2.32-1.41c-.91-.19-1.93-.28-2.89-.43q-5.85-.8-11.9-1.46c-16.09-1.78-31.5-3.07-45.32-5.71a119.68,119.68,0,0,1-18.93-6.29,70.43,70.43,0,0,1-15.5-7.83,33.82,33.82,0,0,1-5.74-5,25,25,0,0,1-3.85-5.57,20.45,20.45,0,0,1-2.41-10.48,20.08,20.08,0,0,1,1.52-6.66c.29-.73.56-1.26.74-1.62s.29-.53.29-.53l-.24.55c-.16.37-.42.91-.69,1.64a19.81,19.81,0,0,0,1,17,24.91,24.91,0,0,0,3.83,5.49,34.14,34.14,0,0,0,5.71,4.89,70.09,70.09,0,0,0,15.45,7.73,120,120,0,0,0,18.87,6.22c13.77,2.6,29.18,3.88,45.28,5.66,4,.45,8,.93,11.91,1.47,1,.15,1.93.23,2.94.44a4.93,4.93,0,0,1,2.59,1.58,5.29,5.29,0,0,1,.72,5.69c-3.63,6.75-7.08,13.24-10.3,19.48-6.44,12.47-12.07,23.78-16.78,33.3s-8.46,17.22-11.09,22.56l-3,6.14c-.34.68-.61,1.21-.79,1.59Z" style="fill:#455a64"></path><path d="M269.57,212.78l-12.19-19.93-9,2.76-18.11,5.72,20.18,26.54c1.32,1.69,2.46,2.63,3.14,2.55l45.06,24.78,10.63-9Z" style="fill:#c28672"></path><path d="M309.31,246.23l15.6,4.45s7.18,7,6.73,9.64c-.18,1-5.15,1.16-5.15,1.16s-.32,3.94-4.07,2.86c0,0-.87,3.38-4,1.9,0,0-2.5,3.26-5.21.11-.92-1.06-4.19-3.85-4.19-3.85l-10.52-7.64Z" style="fill:#c28672"></path><path d="M318.23,266.33a23.49,23.49,0,0,1-1.71-2.25,23.27,23.27,0,0,1-1.83-2.16,5,5,0,0,1,2.24,1.83A4.9,4.9,0,0,1,318.23,266.33Z" style="fill:#8b5c4d"></path><path d="M319.87,259.45c0-.06.36,0,.8.36a4.56,4.56,0,0,1,1.3,1.67,3.67,3.67,0,0,1,.39,2.91,24.13,24.13,0,0,0-.86-2.68A11,11,0,0,0,319.87,259.45Z" style="fill:#8b5c4d"></path><path d="M323.63,255.39c0-.06.43,0,1,.44a5.1,5.1,0,0,1,1.53,2.07,9.28,9.28,0,0,1,.62,2.46c.07.63.07,1,0,1s-.2-.36-.36-1a18.76,18.76,0,0,0-.74-2.33,6.58,6.58,0,0,0-1.29-2C323.92,255.67,323.59,255.46,323.63,255.39Z" style="fill:#8b5c4d"></path></g></svg>